<?xml version="1.0" encoding="utf-8"?>
<!-- Generator: Adobe Illustrator 21.0.2, SVG Export Plug-In . SVG Version: 6.00 Build 0)  -->
<svg version="1.1" id="Layer_1" xmlns="http://www.w3.org/2000/svg" xmlns:xlink="http://www.w3.org/1999/xlink" x="0px" y="0px"
	 width="20px" height="20px"  viewBox="0 0 20 20" style="enable-background:new 0 0 20 20;" xml:space="preserve">
<style type="text/css">
	.st0{fill:#595959;}
	.st1{fill:#FFFFFF;}
</style>
<title>plant-on</title>
<desc>Created with Sketch.</desc>
<g id="Symbols">
	<g id="plant-on">
		<g id="map-icon-plant-on" transform="translate(2.000000, 0.000000)">
			<g id="Group-3">
				<path id="Combined-Shape" class="st0" d="M7.8,0.1c4.3,0,7.8,3.5,7.8,7.9c0,2-0.7,3.8-1.9,5.2c-0.3,0.4,0,0-0.3,0.4l-3.9,4.5
					c-0.3,0.4,0,0-0.3,0.4l-1.3,1.5l-1.3-1.5l-0.3-0.4l-3.8-4.4c-0.1-0.1-0.1-0.1-0.1-0.1C0.9,12.1,0,10.1,0,8
					C0,3.6,3.5,0.1,7.8,0.1z"/>
			</g>
		</g>
	</g>
	<path class="st1" d="M13.6,12.3h-0.4V4.1c0-0.2-0.2-0.4-0.4-0.4h-6c-0.2,0-0.4,0.2-0.4,0.4v8.2H6c-0.1,0-0.2,0.1-0.2,0.2v0.4h8
		v-0.4C13.8,12.4,13.7,12.3,13.6,12.3z M8.1,5.1c0-0.1,0.1-0.2,0.2-0.2H9c0.1,0,0.2,0.1,0.2,0.2v0.7C9.2,5.9,9.1,6,9,6H8.3
		C8.2,6,8.1,5.9,8.1,5.8V5.1z M8.1,6.8c0-0.1,0.1-0.2,0.2-0.2H9c0.1,0,0.2,0.1,0.2,0.2v0.7c0,0.1-0.1,0.2-0.2,0.2H8.3
		c-0.1,0-0.2-0.1-0.2-0.2V6.8z M9,9.4H8.3c-0.1,0-0.2-0.1-0.2-0.2V8.5c0-0.1,0.1-0.2,0.2-0.2H9c0.1,0,0.2,0.1,0.2,0.2v0.7
		C9.2,9.3,9.1,9.4,9,9.4z M10.4,12.3H9.2v-1.5c0-0.1,0.1-0.2,0.2-0.2h0.7c0.1,0,0.2,0.1,0.2,0.2V12.3z M11.5,9.2
		c0,0.1-0.1,0.2-0.2,0.2h-0.7c-0.1,0-0.2-0.1-0.2-0.2V8.5c0-0.1,0.1-0.2,0.2-0.2h0.7c0.1,0,0.2,0.1,0.2,0.2V9.2z M11.5,7.5
		c0,0.1-0.1,0.2-0.2,0.2h-0.7c-0.1,0-0.2-0.1-0.2-0.2V6.8c0-0.1,0.1-0.2,0.2-0.2h0.7c0.1,0,0.2,0.1,0.2,0.2V7.5z M11.5,5.8
		c0,0.1-0.1,0.2-0.2,0.2h-0.7c-0.1,0-0.2-0.1-0.2-0.2V5.1c0-0.1,0.1-0.2,0.2-0.2h0.7c0.1,0,0.2,0.1,0.2,0.2V5.8z"/>
</g>
</svg>
